PathFileType	4	(X/Y/Z)	c:/Users/goper/Files/vsCode/490R/osim_files/C08/C08_SSWS_01.trc
DataRate	CameraRate	NumFrames	NumMarkers	Units                	OrigDataRate	OrigDataStartFrame	OrigNumFrames
250.00	250.00	6	36	mm	250.0	1876	2500
                Frame#	Time	LPSIS			LASIS			LTH1			LTH2			LTH3			LTH4			LLFE			LMFE			LSH1			LSH2			LSH3			LSH4			LLMAL			LMMAL			LCAL			LMTP5			LTOE			LMTP1			RPSIS			RASIS			RTH1			RTH2			RTH3			RTH4			RLFE			RMFE			RSH1			RSH2			RSH3			RSH4			RLMAL			RMMAL			RCAL			RMTP1			RTOE			RMTP5		
		X1	Y1	Z1	X2	Y2	Z2	X3	Y3	Z3	X4	Y4	Z4	X5	Y5	Z5	X6	Y6	Z6	X7	Y7	Z7	X8	Y8	Z8	X9	Y9	Z9	X10	Y10	Z10	X11	Y11	Z11	X12	Y12	Z12	X13	Y13	Z13	X14	Y14	Z14	X15	Y15	Z15	X16	Y16	Z16	X17	Y17	Z17	X18	Y18	Z18	X19	Y19	Z19	X20	Y20	Z20	X21	Y21	Z21	X22	Y22	Z22	X23	Y23	Z23	X24	Y24	Z24	X25	Y25	Z25	X26	Y26	Z26	X27	Y27	Z27	X28	Y28	Z28	X29	Y29	Z29	X30	Y30	Z30	X31	Y31	Z31	X32	Y32	Z32	X33	Y33	Z33	X34	Y34	Z34	X35	Y35	Z35	X36	Y36	Z36

1876	7.50000	-3142.63354	1051.75671	205.82758	-3359.67334	1017.06451	278.11133	-3360.59839	748.56842	356.10904	-3388.57959	675.72095	343.63486	-3416.24658	607.42303	332.62576	-3460.12817	711.77991	318.54404	-3432.07690	561.74426	324.93893	-3445.48364	551.77222	197.55183	0.00000	0.00000	0.00000	0.00000	0.00000	0.00000	-3443.06592	443.65399	341.21619	-3445.84351	399.71191	343.85300	-3412.71191	118.79390	298.84271	-3449.33154	125.70791	217.69121	0.00000	0.00000	0.00000	-3529.60156	60.77152	339.98087	-3593.91089	86.15163	288.77945	-3568.22412	60.20321	235.97847	-3140.13306	1051.82007	146.22893	-3334.74097	1015.01672	39.73637	-3243.42676	753.36432	-4.03616	-3238.23413	676.85394	15.51821	-3226.64893	599.31287	27.11765	-3311.58838	674.79382	40.13241	-3219.56982	526.34192	47.82822	-3232.55200	525.97864	174.55264	-3153.37280	451.58881	37.12004	-3150.98608	405.58673	32.32412	-3213.18994	443.74393	41.47631	-3205.88599	399.67065	37.10313	0.00000	0.00000	0.00000	-3158.11890	110.67006	184.55553	-3065.07153	84.96067	174.58830	-3282.68433	46.46694	163.31525	-3296.55151	61.72612	110.96240	-3238.55200	44.69679	53.55272
1877	7.50400	-3146.40698	1051.24146	206.00388	-3363.51562	1016.33185	278.13342	-3363.17017	747.58734	355.75198	-3391.11890	674.71411	343.33597	-3418.57642	606.29315	332.53595	-3462.69434	710.52942	318.31961	-3434.53345	560.66132	324.68594	-3448.18042	550.79199	197.22385	0.00000	0.00000	0.00000	0.00000	0.00000	0.00000	-3448.10596	442.89185	340.90790	-3454.44214	399.62628	344.17044	-3425.04834	117.40970	298.40509	-3461.05469	125.19580	217.12550	0.00000	0.00000	0.00000	-3543.42554	61.71811	338.75336	-3606.89062	88.30656	287.31378	-3581.39014	61.93773	234.59152	-3143.70410	1051.37085	146.46777	-3338.26416	1014.56763	39.50955	-3246.26807	753.17828	-4.00144	-3240.86792	676.77283	15.54080	-3228.86475	599.21179	27.20744	-3314.18506	674.47729	40.23939	-3221.48633	526.28949	47.84783	-3234.51514	525.92804	174.56931	-3154.95972	451.80862	37.19032	-3152.07300	405.94931	32.29918	-3214.64941	443.64682	41.50905	-3207.23413	399.65683	37.11665	0.00000	0.00000	0.00000	-3158.48853	110.64609	184.76215	-3065.32715	85.17025	174.66820	-3283.18481	46.20306	163.78073	-3296.63232	61.64450	110.91824	-3238.97290	44.65103	53.35141
1878	7.50800	-3149.41235	1050.81921	206.13715	-3367.36646	1015.61469	278.15445	-3365.64575	746.54907	355.43814	-3393.46680	673.68182	343.08017	-3420.72827	605.16089	332.40140	-3465.18896	709.22614	318.19421	-3437.03735	559.56354	324.49396	-3450.69189	549.72595	196.93237	0.00000	0.00000	0.00000	0.00000	0.00000	0.00000	-3453.12378	442.12970	340.62268	-3460.20410	398.76364	343.74564	-3437.22095	116.15024	297.92056	-3472.61841	124.82819	216.50899	0.00000	0.00000	0.00000	-3556.99390	62.79842	337.52893	-3619.65723	90.62630	285.74048	-3594.25903	63.86189	233.12964	-3147.36206	1050.90234	146.68896	-3341.69189	1014.09528	39.30045	-3249.18042	753.01575	-4.02165	-3243.52539	676.65552	15.57131	-3231.09180	599.11627	27.26163	-3316.78027	674.13385	40.31721	-3223.42529	526.17700	47.82511	-3236.53882	525.88519	174.56146	-3156.50122	451.99295	37.27685	-3153.77734	405.99786	32.45557	-3216.28320	443.64175	41.53848	-3208.57446	399.58658	37.12693	-3118.79785	100.79871	107.66038	-3158.72607	110.84820	184.79134	-3065.47168	85.41981	174.71739	-3283.22095	46.16710	163.76382	-3296.66968	61.51835	110.89522	-3239.72876	44.47900	53.09496
1879	7.51200	-3153.69067	1050.22070	206.37587	-3371.26367	1014.89435	278.16000	-3368.08618	745.49524	355.14084	-3395.79419	672.57831	342.90625	-3424.73047	604.44427	334.15012	-3467.64185	707.81714	318.11398	-3439.46045	558.45813	324.29950	-3453.19458	548.64447	196.66805	0.00000	0.00000	0.00000	0.00000	0.00000	0.00000	-3458.01294	441.36469	340.26917	-3465.97705	398.01099	343.32309	-3446.52637	116.38037	296.97159	-3483.86401	124.57262	215.85060	0.00000	0.00000	0.00000	-3570.36450	63.99154	336.09625	-3632.19409	93.07700	284.04047	-3606.97534	65.97729	231.54236	-3150.82178	1050.38574	146.84456	-3345.22754	1013.63989	39.10595	-3252.13086	752.89648	-4.05567	-3246.21606	676.53473	15.59029	-3233.49634	599.11310	27.27052	-3319.46509	673.80444	40.39161	-3225.41846	526.07660	47.79007	-3238.63452	525.82892	174.54367	-3158.15112	452.19989	37.32051	-3155.07861	406.29376	32.41487	-3217.90576	443.59070	41.53088	-3209.99243	399.52988	37.11581	-3119.03101	101.06845	107.68003	-3158.96655	111.06237	184.86862	-3065.69995	85.65952	174.76691	-3283.27124	46.15580	163.70396	-3296.74683	61.44654	110.83636	-3239.72388	44.46643	53.05424
1880	7.51600	-3157.55176	1049.61536	206.48193	-3375.13770	1014.18262	278.14044	-3370.46729	744.35596	354.93686	-3398.00244	671.42859	342.71252	-3424.68262	602.59729	332.30133	-3470.03125	706.36566	318.13760	-3441.75488	557.30621	324.09875	-3455.73975	547.57672	196.38612	0.00000	0.00000	0.00000	0.00000	0.00000	0.00000	-3462.98389	440.68466	339.97034	-3471.65088	397.27338	342.86304	-3458.05054	115.66824	296.41586	-3495.13037	122.47234	215.67795	0.00000	0.00000	0.00000	-3583.41626	65.24654	334.67111	-3644.33423	95.60322	282.28848	-3619.34644	68.13105	229.86929	-3154.76196	1049.79456	147.05225	-3348.83838	1013.22205	38.90687	-3255.13623	752.72845	-4.10055	-3248.90430	676.40869	15.58669	-3235.92529	599.03369	27.32234	-3322.17261	673.42255	40.44624	-3227.51318	525.99512	47.70752	-3240.81787	525.83569	174.53529	-3155.79102	450.60660	38.40181	-3156.69482	406.41074	32.52837	-3219.57812	443.53192	41.51363	-3211.42529	399.46793	37.06384	-3119.32886	101.39590	107.67577	-3159.18652	111.24827	184.86665	-3065.89062	85.87397	174.77289	-3283.34790	46.14824	163.67711	-3296.85449	61.34755	110.78449	-3239.75635	44.43086	53.00468
1881	7.52000	-3160.23975	1049.09656	207.39850	-3379.05322	1013.54803	278.10889	-3372.80933	743.21527	354.78696	-3400.15405	670.22699	342.56186	-3428.64185	601.93878	334.21060	-3472.45142	704.85913	318.24530	-3444.06201	556.14679	323.89935	-3458.24365	546.49554	196.12463	0.00000	0.00000	0.00000	0.00000	0.00000	0.00000	-3467.78540	439.95996	339.63123	-3477.32666	396.59027	342.38135	-3477.72168	111.85786	294.04694	-3506.15234	122.50556	214.93294	0.00000	0.00000	0.00000	-3596.11206	66.49776	333.09219	-3656.29614	98.28339	280.47241	-3631.36328	70.54529	228.14816	-3158.36499	1049.30396	147.19330	-3352.39697	1012.77747	38.76486	-3258.13770	752.54224	-4.14595	-3251.66626	676.21790	15.62765	-3238.40430	598.95007	27.30852	-3324.92090	673.06683	40.45511	-3229.69653	525.93225	47.64117	-3243.11035	525.84296	174.47263	-3157.49512	450.78430	38.47901	-3158.25073	406.64139	32.49597	-3221.28369	443.44000	41.49200	-3212.93555	399.42111	37.06881	-3119.52515	101.60889	107.76665	-3159.41602	111.44186	184.90343	-3066.10742	86.14894	174.77106	-3283.34399	46.06087	163.65166	-3296.93188	61.23758	110.72353	-3239.74487	44.37613	52.97765
